<svg baseProfile="full" height="254.0mm" version="1.1" viewBox="0 0 457.2 254.0" width="457.2mm" xmlns="http://www.w3.org/2000/svg" xmlns:ev="http://www.w3.org/2001/xml-events" xmlns:xlink="http://www.w3.org/1999/xlink"><defs /><path d="M 20.320 0.000 L 436.880 0.000 Q 457.200 0.000 457.200 20.320 L 457.200 233.680 Q 457.200 254.000 436.880 254.000 L 20.320 254.000 Q 0.000 254.000 0.000 233.680 L 0.000 20.320 Q 0.000 0.000 20.320 0.000 Z" fill="none" stroke="#0000ff" stroke-width="0.15" /><path d="M 51.864 223.520 a 3.000 3.000 0 1 0 6.000 0 a 3.000 3.000 0 1 0 -6.000 0 Z" fill="none" stroke="#ff0000" stroke-width="0.15" /><path d="M 79.296 25.400 a 3.000 3.000 0 1 0 6.000 0 a 3.000 3.000 0 1 0 -6.000 0 Z" fill="none" stroke="#ff0000" stroke-width="0.15" /><path d="M 371.904 25.400 a 3.000 3.000 0 1 0 6.000 0 a 3.000 3.000 0 1 0 -6.000 0 Z" fill="none" stroke="#ff0000" stroke-width="0.15" /></svg>